<?xml version="1.0" encoding="UTF-8" standalone="no"?>
<svg
   xmlns:dc="http://purl.org/dc/elements/1.1/"
   xmlns:cc="http://creativecommons.org/ns#"
   xmlns:rdf="http://www.w3.org/1999/02/22-rdf-syntax-ns#"
   xmlns:svg="http://www.w3.org/2000/svg"
   xmlns="http://www.w3.org/2000/svg"
   xmlns:sodipodi="http://sodipodi.sourceforge.net/DTD/sodipodi-0.dtd"
   xmlns:inkscape="http://www.inkscape.org/namespaces/inkscape"
   width="14"
   height="14"
   version="1.1"
   style="enable-background:new"
   id="svg8"
   sodipodi:docname="titlebutton-close-dark.svg"
   inkscape:version="0.92.4 5da689c313, 2019-01-14">
  <metadata
     id="metadata14">
    <rdf:RDF>
      <cc:Work
         rdf:about="">
        <dc:format>image/svg+xml</dc:format>
        <dc:type
           rdf:resource="http://purl.org/dc/dcmitype/StillImage" />
        <dc:title />
      </cc:Work>
    </rdf:RDF>
  </metadata>
  <defs
     id="defs12" />
  <sodipodi:namedview
     pagecolor="#ffffff"
     bordercolor="#666666"
     borderopacity="1"
     objecttolerance="10"
     gridtolerance="10"
     guidetolerance="10"
     inkscape:pageopacity="0"
     inkscape:pageshadow="2"
     inkscape:window-width="1920"
     inkscape:window-height="969"
     id="namedview10"
     showgrid="false"
     inkscape:zoom="55.214286"
     inkscape:cx="7"
     inkscape:cy="7"
     inkscape:window-x="0"
     inkscape:window-y="28"
     inkscape:window-maximized="1"
     inkscape:current-layer="svg8" />
  <path
     inkscape:connector-curvature="0"
     id="path4"
     d="m 3.9771189,3.9771475 c -0.4186691,0.4186294 -0.4186691,1.09269 0,1.5114263 L 5.4885592,7 3.9771189,8.5114263 c -0.4186691,0.4187362 -0.4186691,1.0927968 0,1.5114267 0.418669,0.418735 1.0927713,0.418735 1.5114403,0 L 7.0000004,8.5114263 8.5114416,10.022853 c 0.4186688,0.418736 1.0927713,0.418736 1.5114394,0 0.41867,-0.4186298 0.41867,-1.0926905 0,-1.5114267 L 8.5114416,7 10.022881,5.4885738 c 0.41867,-0.4187363 0.41867,-1.0927969 0,-1.5114263 -0.4186681,-0.4187362 -1.0927706,-0.4187362 -1.5114394,0 L 7.0000004,5.4885738 5.4885592,3.9771475 c -0.418669,-0.4187362 -1.0927713,-0.4187362 -1.5114403,0 z"
     style="opacity:1;fill:#151515;fill-opacity:1;stroke:none;stroke-width:2.13750005;stroke-linecap:round;stroke-linejoin:round;stroke-miterlimit:4;stroke-dasharray:none;stroke-opacity:1;enable-background:new" />
</svg>
